<?xml version="1.0" encoding="utf-8"?>
<!-- Generator: Adobe Illustrator 25.4.1, SVG Export Plug-In . SVG Version: 6.00 Build 0)  -->
<svg version="1.1" id="Capa_1" xmlns="http://www.w3.org/2000/svg" xmlns:xlink="http://www.w3.org/1999/xlink" x="0px" y="0px"
	 viewBox="0 0 250 250" style="enable-background:new 0 0 250 250;" xml:space="preserve">
<path d="M162.3,164.6c5.4,0,10.9,0,16.3,0c0.9,0,1.3,0.8,1.8,1.3c8,7.7,15.9,15.4,23.8,23.1c1.2,1.2,2.5,1.8,4.3,1.8
	c4.3-0.1,8.6,0,12.9,0c0.5,0,1.2-0.1,1.5,0.4c0.3,0.6-0.3,1-0.6,1.4c-3.4,4.1-7.1,7.9-11.1,11.4c-9.6,8.6-20.5,15.2-32.4,20
	c-8.1,3.2-16.4,5.4-25,6.8c-9.5,1.6-19,1.4-28.5,0.6c-11.2-1-22-4-32.4-8.5c-9.2-4-17.7-8.9-25.5-15.1c-11.4-9-20.6-19.9-27.5-32.7
	c-4.4-8-7.6-16.4-9.8-25.3c-1.4-5.7-2.6-11.6-2.5-17.5c0.1-6.2-0.4-12.5,0.3-18.7c1.3-11.3,4.2-22.1,9.1-32.4
	C45,64.7,56.3,51,71.2,40.2c11.5-8.3,24-14.3,37.7-17.8c6.8-1.7,13.7-2.5,20.6-3.2c9.3-1,18.5-0.2,27.5,1.3
	c8.3,1.4,16.4,3.8,24.1,7.3c4,1.8,8,3.5,11.8,5.8c1.1,0.7,1.7,1.4,1.7,2.7c0,3.5,0,7.1,0,10.6c0,0.5,0.2,1.2-0.4,1.4
	c-0.6,0.3-0.9-0.4-1.4-0.7c-10.7-6.9-22.1-12-34.6-14.7c-9.2-2-18.6-2.8-27.9-2.1c-19.2,1.4-36.8,7.7-52.3,19.2
	C66,59.2,56.4,70.4,49.5,83.9c-4.7,9.2-7.8,19-9,29.3c-0.4,3.4-1.1,6.8-1.1,10.3c0.2,18.1,4.4,35.1,14.1,50.6
	c11,17.5,26,30.1,44.9,38.3c14.8,6.4,30.3,8.7,46.2,7.6c16.2-1.2,31.3-6.2,45.1-14.9c0.4-0.2,0.8-0.5,1.1-0.8
	c0.7-0.5,0.8-1.1,0.7-1.8c-0.2-0.8-0.9-0.7-1.5-0.8c-1.3,0-2.6,0-3.9,0c-25.1,0-50.2,0-75.3,0c-3.1,0-3.1,0-3.1-3.1
	c0-2.1,0-4.2,0-6.2c0-1.2,0.5-1.6,1.6-1.5c12,0.8,24,0.2,36,0.3c5.2,0.1,10.5,0.3,15.7-0.4c0.8-0.1,1.9,0.2,2.3-0.7
	c0.3-0.9-0.6-1.5-1.2-2.1c-7.6-7.3-15.1-14.7-22.7-22c-0.4-0.4-0.7-0.8-1.2-1.4c5.7,0,11,0,16.2,0c1.1,0,1.6,0.8,2.3,1.4
	c7.9,7.6,15.8,15.3,23.6,23c1.4,1.4,3,2.1,5,1.8c0.7-0.1,1.5,0,1.8-0.7c0.3-0.8-0.4-1.2-0.9-1.7c-7.1-6.8-14.1-13.7-21.2-20.5
	c-1-0.9-2.1-1.7-3.2-2.5C161.9,165.2,162.1,164.9,162.3,164.6z"/>
<path d="M191,119c0,13.6,0,27.3,0,40.9c0,2.3-0.7,3-2.9,2.8c-2.5-0.2-4.9-0.2-7.4,0c-1.8,0.1-2.2-0.6-2.2-2.2c0.1-6.5,0-13.1,0-19.6
	c0-9.4-6.3-16.7-15.3-18c-8.8-1.2-17.3,4.5-19.7,13.5c-0.7,2.7-0.2,5.5-0.3,8.3c-0.1,1.9-0.3,3.9,0,5.8c0.5,3.4-1.2,5.6-3.4,7.8
	c-10.9,10.6-22,21-32.7,31.8c-3.7,3.7-7.6,7.2-11.3,10.9c-0.4,0.4-0.9,0.7-1.4,0.8c-3.4,0.1-6.8,0.1-10.2,0.1c-0.6,0-1-0.4-1-1.1
	c0-0.5,0-1.1,0-1.6c0-20.2-0.3-40.3,0.1-60.5c0.2-10.2,5.5-18,14.2-23.3c8.3-5,17.1-5.6,26.2-2.4c4.4,1.5,8.3,4.1,11.4,7.6
	c1.3,1.5,2.1,1.5,3.4,0c9.5-10,24-12.4,36.4-6.1c0.5,0.2,1,0.4,1.4,0.7c1.4,0.8,1.8,0.1,1.9-1.1c0.1-0.7,0.1-1.4,0.1-2.1
	c0-11.5,0-22.9,0-34.4c0-1.9,0.5-2.6,2.5-2.5c2.5,0.2,4.9,0.2,7.4,0c2.1-0.1,2.8,0.7,2.6,2.7c0,0.1,0,0.2,0,0.2
	C191,91.6,191,105.3,191,119C191,119,191,119,191,119z M95.3,159.3c0,7.4,0,13.4,0,19.5c0,0.8,0,1.5,0.1,2.3
	c0.3,1.9,0.9,2.2,2.3,0.9c1.8-1.7,3.4-3.6,5.3-5.1c2-1.6,2.5-3.4,2.5-5.8c-0.1-8.7-0.1-17.4,0-26.1c0-0.9-0.6-2.4,1.1-2.5
	c1.8-0.1,1.3,1.5,1.3,2.4c0.1,6,0.1,12,0.1,18c0,1.8-0.1,3.7-0.1,5.5c0,0.8-0.2,1.9,0.7,2.3c0.8,0.3,1.3-0.6,1.9-1.1
	c1.7-1.6,3.2-3.3,5-4.8c1.6-1.3,2.2-2.8,2.1-4.8c0-4.5,0-9.1,0-13.6c0-0.8,0-1.7,0-2.5c0-0.6-0.1-1.3,0.8-1.4
	c0.8-0.1,0.7,0.6,0.9,1.1c0.3,1,0.4,1.9,0.4,3c0,3.6,0,7.2,0,10.8c0,0.7-0.1,1.5,0.7,1.8c0.7,0.2,1.1-0.3,1.6-0.8c1-1,2-2.1,3.2-3
	c4.2-3.2,6.7-7,5.6-12.6c-0.2-1,0-2,0-3c-0.2-4.9-2-9.2-5.7-12.4c-5.4-4.6-11.6-6.1-18.3-3.4c-6.4,2.6-10.1,7.5-11.1,14.5
	C94.8,145.9,95.7,153.2,95.3,159.3z"/>
<path d="M83.5,99c0-2.9,0.1-5.9,0-8.8c-0.2-3.9,0.6-7.7,1.4-11.4c0.4-1.9-0.3-2.5-1.8-2.5c-1.7-0.1-3.4-0.1-5.1,0.1
	c-1.7,0.1-2.6-0.5-2.5-2.3c0.1-2.5,0.1-4.9,0.1-7.4c0-1.3,0.4-1.9,1.9-1.9c13.4-0.4,26.8-0.6,40.1,0.2c6.2,0.4,11.8,3.3,16.5,7.6
	c0.5,0.5,1,1,1.5,1.5c1.1,1.3,2,1.4,3.4,0c6.1-6.1,13.4-9.6,22.3-9.3c6.2,0.2,10.9-2.3,14.6-7.3c1.1-1.4,2.3-2.6,2.1-4.6
	c-0.1-1.2,0.9-1.4,1.9-1.4c3.1,0,6.2,0,9.2,0c1.3,0,1.6,0.4,1.3,1.7c-1.4,7.2-5.1,12.9-11.1,17.1c-3.9,2.8-8,5-12.9,5.8
	c-2.7,0.4-5.5,0.1-8.3,0.6c-7.7,1.5-12.6,6.3-14.5,13.5c-0.9,3.5-0.2,7.3-0.3,11c0,3.6,0,3.6-3.6,3.6c-2,0-4-0.1-6,0
	c-1.9,0.2-2.5-0.9-2.6-2.4c-0.2-2.1-0.3-4.2-0.2-6.2c1-12.5-8.8-20.7-20.2-20c-3.1,0.2-6.2,0.1-9.2,0c-2.2-0.1-3.3,0.8-3.9,3
	c-1.5,5.2-2.2,10.5-2.2,15.9c0,5.7-0.1,11.4,0.1,17.1c0,1.8-0.6,2.3-2.2,2.2c-2.5-0.1-5.1-0.1-7.6,0c-1.7,0.1-2.1-0.5-2.1-2.1
	C83.5,107.9,83.5,103.5,83.5,99z"/>
<path d="M113.2,102.9c-5.4,0.1-9.5-4-9.5-9.3c0-5.4,3.9-8.9,10.3-9c4.7-0.1,8.9,4.4,8.9,9.6C122.9,98.9,118.6,102.9,113.2,102.9z
	 M113.3,86.7c-3.9,0-7.3,3.3-7.2,7.1c0.1,3.6,3.6,7,7.2,7c3.9-0.1,7.3-3.4,7.2-7.2C120.4,89.9,117.1,86.7,113.3,86.7z"/>
<path d="M160.9,84.8c6.8-0.5,9.5,4.7,9.7,9c0.2,4.7-4.4,9-9.2,9.1c-5.9,0-10-3.7-10-9.1C151.3,88.8,155.2,84.3,160.9,84.8z
	 M168.1,93.9c0-4-3.1-7.2-7.1-7.2c-3.9,0-7.4,3.3-7.4,7.1c0,3.4,3.6,6.9,7.3,7C164.7,100.9,168.1,97.7,168.1,93.9z"/>
</svg>
